<svg width="40" height="44" viewBox="0 0 40 44" fill="none" xmlns="http://www.w3.org/2000/svg">
<path d="M37.7778 44H2.22222C1.63285 44 1.06762 43.7682 0.650874 43.3556C0.234126 42.9431 0 42.3835 0 41.8V2.2C0 1.61652 0.234126 1.05694 0.650874 0.644365C1.06762 0.231785 1.63285 0 2.22222 0H37.7778C38.3671 0 38.9324 0.231785 39.3491 0.644365C39.7659 1.05694 40 1.61652 40 2.2V41.8C40 42.3835 39.7659 42.9431 39.3491 43.3556C38.9324 43.7682 38.3671 44 37.7778 44ZM35.5556 39.6V4.4H4.44444V39.6H35.5556ZM8.88889 8.8H17.7778V17.6H8.88889V8.8ZM8.88889 22H31.1111V26.4H8.88889V22ZM8.88889 30.8H31.1111V35.2H8.88889V30.8ZM22.2222 11H31.1111V15.4H22.2222V11Z" fill="#4EA7FA"/>
</svg>
