<svg width="24" height="24" viewBox="0 0 24 24" fill="none" xmlns="http://www.w3.org/2000/svg">
<path d="M6.53957 1C7.17266 1 9.70504 6.69784 9.70504 7.33094C9.70504 8.59712 7.80576 9.86331 7.17266 11.1295C6.53957 12.3957 7.80576 13.6619 9.07194 14.9281C9.56576 15.4219 11.6043 17.4604 12.8705 16.8273C14.1367 16.1942 15.4029 14.295 16.6691 14.295C17.3022 14.295 23 16.8273 23 17.4604C23 19.9928 21.1007 21.8921 19.2014 22.5252C17.3022 23.1583 16.036 23.1583 13.5036 22.5252C10.9712 21.8921 9.07194 21.259 5.90647 18.0935C2.74101 14.9281 2.10791 13.0288 1.47482 10.4964C0.841727 7.96403 0.841727 6.69784 1.47482 4.79856C2.10791 2.89928 4.00719 1 6.53957 1Z" stroke="white" stroke-width="2" stroke-linecap="round" stroke-linejoin="round"/>
<path d="M14.1367 6.11523C14.9724 6.50775 15.7321 7.03955 16.3652 7.68531C16.9856 8.30574 17.5048 9.05279 17.8846 9.86315" stroke="white" stroke-width="2" stroke-linecap="round" stroke-linejoin="round"/>
<path d="M15.4028 1.31641C17.1882 1.7849 18.7836 2.70921 20.0497 3.9754C21.3033 5.24159 22.2276 6.82432 22.6834 8.59698" stroke="white" stroke-width="2" stroke-linecap="round" stroke-linejoin="round"/>
</svg>
