<svg width="40" height="46" viewBox="0 0 40 46" fill="none" xmlns="http://www.w3.org/2000/svg">
<path d="M4.16667 45.9168C3.02084 45.9168 2.03959 45.5085 1.22292 44.6918C0.406253 43.8752 -0.00138535 42.8946 3.53707e-06 41.7502V12.5835H4.16667V41.7502H27.0833V45.9168H4.16667ZM12.5 37.5835C11.3542 37.5835 10.3729 37.1752 9.55625 36.3585C8.73959 35.5418 8.33195 34.5613 8.33334 33.4168V4.25017C8.33334 3.10433 8.74167 2.12308 9.55834 1.30642C10.375 0.48975 11.3556 0.0821107 12.5 0.0834996H27.0833L39.5833 12.5835V33.4168C39.5833 34.5627 39.175 35.5439 38.3583 36.3606C37.5417 37.1772 36.5611 37.5849 35.4167 37.5835H12.5ZM25 14.6668H35.4167L25 4.25017V14.6668Z" fill="#6EC94F"/>
</svg>
