<svg width="50" height="40" viewBox="0 0 50 40" fill="none" xmlns="http://www.w3.org/2000/svg">
<path d="M40.3125 15.2855C39.6127 11.2131 37.7033 7.54592 34.9106 4.91047C32.1178 2.27501 28.6148 0.834755 25 0.835694C18.9792 0.835694 13.75 4.75916 11.1458 10.5008C8.08382 10.8808 5.2521 12.5468 3.19477 15.1786C1.13744 17.8105 -0.000357712 21.2226 8.43599e-08 24.7593C8.43599e-08 32.678 5.60417 39.1134 12.5 39.1134H39.5833C45.3333 39.1134 50 33.7545 50 27.1516C50 20.8358 45.7292 15.7162 40.3125 15.2855ZM39.5833 34.3287H12.5C7.89583 34.3287 4.16667 30.0464 4.16667 24.7593C4.16667 19.8549 7.35417 15.764 11.5833 15.2616L13.8125 14.9984L14.8542 12.7257C15.8122 10.584 17.2664 8.78744 19.0565 7.5338C20.8466 6.28016 22.9033 5.61806 25 5.62041C30.4583 5.62041 35.1667 10.0702 36.2292 16.2185L36.8542 19.8071L40.0417 20.0702C41.6078 20.1912 43.0759 20.9889 44.1505 22.3028C45.225 23.6166 45.8263 25.3491 45.8333 27.1516C45.8333 31.099 43.0208 34.3287 39.5833 34.3287ZM16.6667 22.3669H21.9792V29.544H28.0208V22.3669H33.3333L25 12.7975L16.6667 22.3669Z" fill="#8B89FF"/>
</svg>
