<svg width="180" height="35" viewBox="0 0 180 35" fill="none" xmlns="http://www.w3.org/2000/svg">
<path d="M60.6545 24.854L57.5328 19.3255H56.6562V24.854H53V10.2086H59.1364C60.3195 10.2086 61.3245 10.4103 62.1512 10.8136C62.9922 11.217 63.6194 11.7733 64.0328 12.4826C64.4461 13.178 64.6528 13.9569 64.6528 14.8192C64.6528 15.7928 64.3677 16.662 63.7976 17.427C63.2416 18.1919 62.4149 18.7344 61.3173 19.0542L64.7811 24.854H60.6545ZM56.6562 16.8011H58.9226C59.5926 16.8011 60.0915 16.6412 60.4193 16.3213C60.7614 16.0014 60.9325 15.5494 60.9325 14.9652C60.9325 14.4089 60.7614 13.9708 60.4193 13.6509C60.0915 13.331 59.5926 13.1711 58.9226 13.1711H56.6562V16.8011Z" fill="white"/>
<path d="M71.8229 10.2086V18.9708C71.8229 19.847 72.0438 20.5216 72.4857 20.9944C72.9276 21.4673 73.5762 21.7038 74.4314 21.7038C75.2867 21.7038 75.9424 21.4673 76.3985 20.9944C76.8546 20.5216 77.0827 19.847 77.0827 18.9708V10.2086H80.7389V18.9499C80.7389 20.2573 80.4538 21.363 79.8837 22.267C79.3135 23.1711 78.5438 23.8526 77.5745 24.3115C76.6194 24.7705 75.5504 25 74.3673 25C73.1842 25 72.1222 24.7775 71.1815 24.3324C70.2549 23.8734 69.5209 23.1919 68.9792 22.2879C68.4375 21.37 68.1667 20.2573 68.1667 18.9499V10.2086H71.8229Z" fill="white"/>
<path d="M98.0167 24.854H94.3605L88.2454 15.8206V24.854H84.5892V10.2086H88.2454L94.3605 19.2837V10.2086H98.0167V24.854Z" fill="white"/>
<path d="M111.293 22.267H105.692L104.794 24.854H100.966L106.397 10.2086H110.631L116.062 24.854H112.191L111.293 22.267ZM110.353 19.5132L108.493 14.1516L106.654 19.5132H110.353Z" fill="white"/>
<path d="M118.377 17.5104C118.377 16.064 118.698 14.7775 119.339 13.6509C119.981 12.5104 120.872 11.6273 122.012 11.0014C123.167 10.3616 124.471 10.0417 125.925 10.0417C127.707 10.0417 129.232 10.5007 130.5 11.4186C131.769 12.3366 132.617 13.5883 133.045 15.1739H129.025C128.726 14.5619 128.298 14.096 127.742 13.7761C127.201 13.4562 126.581 13.2962 125.882 13.2962C124.756 13.2962 123.844 13.6787 123.145 14.4437C122.447 15.2086 122.098 16.2309 122.098 17.5104C122.098 18.79 122.447 19.8122 123.145 20.5772C123.844 21.3421 124.756 21.7246 125.882 21.7246C126.581 21.7246 127.201 21.5647 127.742 21.2448C128.298 20.9249 128.726 20.459 129.025 19.847H133.045C132.617 21.4325 131.769 22.6843 130.5 23.6022C129.232 24.5063 127.707 24.9583 125.925 24.9583C124.471 24.9583 123.167 24.6453 122.012 24.0195C120.872 23.3797 119.981 22.4965 119.339 21.37C118.698 20.2434 118.377 18.9569 118.377 17.5104Z" fill="#F5DEB3"/>
<path d="M143.665 25C142.254 25 140.957 24.6801 139.774 24.0403C138.605 23.4006 137.671 22.5104 136.973 21.37C136.289 20.2156 135.947 18.9221 135.947 17.4896C135.947 16.057 136.289 14.7705 136.973 13.63C137.671 12.4896 138.605 11.5994 139.774 10.9597C140.957 10.3199 142.254 10 143.665 10C145.076 10 146.366 10.3199 147.535 10.9597C148.718 11.5994 149.645 12.4896 150.315 13.63C150.999 14.7705 151.341 16.057 151.341 17.4896C151.341 18.9221 150.999 20.2156 150.315 21.37C149.631 22.5104 148.704 23.4006 147.535 24.0403C146.366 24.6801 145.076 25 143.665 25ZM143.665 21.7455C144.863 21.7455 145.818 21.356 146.53 20.5772C147.257 19.7983 147.621 18.7691 147.621 17.4896C147.621 16.1961 147.257 15.1669 146.53 14.4019C145.818 13.6231 144.863 13.2337 143.665 13.2337C142.454 13.2337 141.484 13.6161 140.757 14.3811C140.045 15.146 139.688 16.1822 139.688 17.4896C139.688 18.783 140.045 19.8192 140.757 20.5981C141.484 21.363 142.454 21.7455 143.665 21.7455Z" fill="#F5DEB3"/>
<path d="M160.089 25C158.991 25 158.008 24.8261 157.138 24.4784C156.269 24.1307 155.57 23.6161 155.043 22.9346C154.53 22.2531 154.259 21.4325 154.231 20.4729H158.122C158.179 21.0153 158.371 21.4325 158.699 21.7246C159.027 22.0028 159.455 22.1419 159.982 22.1419C160.524 22.1419 160.951 22.0236 161.265 21.7872C161.579 21.5369 161.735 21.1961 161.735 20.765C161.735 20.4033 161.607 20.1043 161.35 19.8679C161.108 19.6314 160.802 19.4367 160.431 19.2837C160.075 19.1307 159.562 18.9569 158.892 18.7622C157.922 18.4701 157.131 18.178 156.518 17.886C155.905 17.5939 155.378 17.1627 154.936 16.5925C154.494 16.0223 154.273 15.2782 154.273 14.3602C154.273 12.9972 154.779 11.9332 155.791 11.1683C156.803 10.3894 158.122 10 159.747 10C161.4 10 162.733 10.3894 163.745 11.1683C164.757 11.9332 165.299 13.0042 165.37 14.3811H161.415C161.386 13.9082 161.208 13.5396 160.88 13.2754C160.552 12.9972 160.132 12.8581 159.619 12.8581C159.177 12.8581 158.82 12.9764 158.55 13.2128C158.279 13.4353 158.143 13.7622 158.143 14.1933C158.143 14.6662 158.371 15.0348 158.827 15.299C159.284 15.5633 159.996 15.8484 160.966 16.1544C161.935 16.4743 162.719 16.7803 163.318 17.0723C163.93 17.3644 164.458 17.7886 164.9 18.3449C165.342 18.9013 165.563 19.6175 165.563 20.4937C165.563 21.3282 165.342 22.0862 164.9 22.7677C164.472 23.4492 163.845 23.9917 163.018 24.395C162.191 24.7983 161.215 25 160.089 25Z" fill="#F5DEB3"/>
<path d="M174.526 25C173.429 25 172.445 24.8261 171.576 24.4784C170.706 24.1307 170.008 23.6161 169.48 22.9346C168.967 22.2531 168.696 21.4325 168.668 20.4729H172.559C172.616 21.0153 172.809 21.4325 173.137 21.7246C173.464 22.0028 173.892 22.1419 174.419 22.1419C174.961 22.1419 175.389 22.0236 175.702 21.7872C176.016 21.5369 176.173 21.1961 176.173 20.765C176.173 20.4033 176.044 20.1043 175.788 19.8679C175.546 19.6314 175.239 19.4367 174.868 19.2837C174.512 19.1307 173.999 18.9569 173.329 18.7622C172.36 18.4701 171.569 18.178 170.956 17.886C170.343 17.5939 169.815 17.1627 169.373 16.5925C168.932 16.0223 168.711 15.2782 168.711 14.3602C168.711 12.9972 169.217 11.9332 170.229 11.1683C171.241 10.3894 172.559 10 174.184 10C175.838 10 177.171 10.3894 178.183 11.1683C179.195 11.9332 179.736 13.0042 179.808 14.3811H175.852C175.824 13.9082 175.645 13.5396 175.317 13.2754C174.99 12.9972 174.569 12.8581 174.056 12.8581C173.614 12.8581 173.258 12.9764 172.987 13.2128C172.716 13.4353 172.581 13.7622 172.581 14.1933C172.581 14.6662 172.809 15.0348 173.265 15.299C173.721 15.5633 174.434 15.8484 175.403 16.1544C176.372 16.4743 177.156 16.7803 177.755 17.0723C178.368 17.3644 178.895 17.7886 179.337 18.3449C179.779 18.9013 180 19.6175 180 20.4937C180 21.3282 179.779 22.0862 179.337 22.7677C178.91 23.4492 178.282 23.9917 177.456 24.395C176.629 24.7983 175.652 25 174.526 25Z" fill="#F5DEB3"/>
<path fill-rule="evenodd" clip-rule="evenodd" d="M8.75339 0.0605793C8.32868 0.218378 8.31206 0.290139 8.31206 1.96433V3.52109H9.52573H10.7394V4.67972V5.83836H12.4639C14.6872 5.83836 14.5898 5.89532 14.6257 4.57425L14.6502 3.67059L17.9725 3.66932L21.2947 3.66797L22.0933 4.51026C23.2789 5.76069 23.1698 5.37902 23.1701 8.27523L23.1704 10.7495L22.959 11.041C22.8427 11.2013 22.4007 11.6773 21.9766 12.0987L21.2057 12.8649H17.9218H14.6379L14.6371 12.4351C14.6358 11.7893 14.5637 11.4657 14.3744 11.2582L14.2035 11.0709H12.5083H10.813V17.4266V23.7823L11.0121 23.8592C11.446 24.0269 14.244 23.9134 14.4337 23.7204L14.6011 23.5502L14.6222 20.039L14.6434 16.5277H16.8811H19.1189L19.1981 16.808C19.2605 17.0293 22.6473 30.8583 22.7567 31.3389C22.7799 31.4408 22.7032 31.4669 22.3056 31.4926C21.5273 31.543 21.4786 31.6394 21.4786 33.1302C21.4786 35.0708 21.2407 34.9388 24.8077 34.9778C29.092 35.0247 28.772 35.1829 28.7438 33.0308L28.7238 31.5152L27.8097 31.5109C27.0944 31.5075 26.8822 31.4832 26.834 31.3988C26.742 31.2379 23.1704 16.6277 23.1704 16.4124C23.1704 16.2738 23.5732 15.7929 24.7702 14.5025C25.6501 13.554 26.4528 12.6377 26.5539 12.4664L26.7378 12.1548L26.7597 8.37988C26.7865 3.76298 26.8771 4.22875 25.7121 2.99798C25.2244 2.4828 24.4497 1.65202 23.9905 1.15179C23.4174 0.527472 23.0653 0.205521 22.8673 0.125089C22.5799 0.00817909 9.06071 -0.053565 8.75339 0.0605793ZM3.78836 6.76452C3.57564 6.85901 2.27487 8.18239 0.939685 9.66276C-0.0958361 10.8109 0.00368526 9.97394 0.00184636 17.5438L0.00022811 24.054L0.165729 24.3651C0.444433 24.8889 3.28818 27.9214 3.71083 28.1455L4.07472 28.3383H12.5927C20.6565 28.3383 21.1107 28.3314 21.1098 28.2075C21.1054 27.6582 20.3724 25.1506 20.1596 24.9574L19.9315 24.7503H12.7625C6.53112 24.7503 5.55716 24.7355 5.31612 24.6371C4.99211 24.5048 3.9454 23.3894 3.7941 23.015C3.67148 22.7116 3.64037 12.9725 3.76026 12.4199C3.92378 11.6662 4.45309 10.9185 5.14518 10.4636L5.47221 10.2487H13.88H22.2877V8.50135V6.75406L22.0578 6.70734C21.559 6.60597 4.02168 6.66084 3.78836 6.76452ZM27.651 6.67931C27.5873 6.87037 27.6316 9.66784 27.7013 9.85023C27.847 10.2312 27.9412 10.2487 29.8481 10.2487H31.6072L31.8941 10.461C33.2822 11.4885 33.7624 12.368 33.7624 13.8824C33.7624 15.5795 33.6518 15.4812 35.5612 15.4812H36.9989V13.159C36.9989 11.5634 36.9726 10.7857 36.9149 10.6735C36.6037 10.0687 33.4442 6.84181 33.0637 6.74008C32.8165 6.674 27.6721 6.61629 27.651 6.67931ZM33.9607 19.6008C33.7388 19.7319 33.6898 19.9921 33.7635 20.6479C33.9454 22.269 33.1207 23.8326 31.7068 24.5477L31.3062 24.7503H28.7462H26.1862V25.0769C26.1862 25.6004 26.8015 27.9503 26.9883 28.1403C27.1778 28.3329 32.125 28.4306 32.9439 28.2578C33.4294 28.1553 33.634 27.9694 35.5537 25.8848C37.1609 24.1396 36.9932 24.5979 36.9963 21.9405L36.9989 19.6912L36.8115 19.6045C36.5707 19.4929 34.1484 19.4898 33.9607 19.6008ZM10.7394 30.3192V31.4779H9.52426H8.30911L8.32897 33.0583L8.34883 34.6388L8.55641 34.7963C8.76126 34.9517 8.81466 34.9538 12.5531 34.9538H16.3422L16.5198 34.744C16.6934 34.5391 16.6974 34.504 16.6951 33.2116C16.6921 31.4827 16.6882 31.4779 15.3319 31.4779H14.5643V30.3192V29.1606H12.6519H10.7394V30.3192Z" fill="white"/>
</svg>
