<svg width="18" height="19" viewBox="0 0 18 19" fill="none" xmlns="http://www.w3.org/2000/svg">
<path d="M1.98939 0.246582C1.46177 0.246582 0.95576 0.456177 0.582678 0.82926C0.209595 1.20234 0 1.70835 0 2.23597C0 2.76359 0.209595 3.26959 0.582678 3.64268C0.95576 4.01576 1.46177 4.22535 1.98939 4.22535C2.517 4.22535 3.02301 4.01576 3.39609 3.64268C3.76918 3.26959 3.97877 2.76359 3.97877 2.23597C3.97877 1.70835 3.76918 1.20234 3.39609 0.82926C3.02301 0.456177 2.517 0.246582 1.98939 0.246582ZM0.117023 5.86367C0.0859863 5.86367 0.0562211 5.876 0.0342751 5.89795C0.0123291 5.91989 0 5.94966 0 5.98069V18.1511C0 18.2156 0.0524262 18.2681 0.117023 18.2681H3.86175C3.89278 18.2681 3.92255 18.2557 3.9445 18.2338C3.96644 18.2119 3.97877 18.1821 3.97877 18.1511V5.98069C3.97877 5.94966 3.96644 5.91989 3.9445 5.89795C3.92255 5.876 3.89278 5.86367 3.86175 5.86367H0.117023ZM6.2022 5.86367C6.17117 5.86367 6.1414 5.876 6.11945 5.89795C6.09751 5.91989 6.08518 5.94966 6.08518 5.98069V18.1511C6.08518 18.2156 6.13761 18.2681 6.2022 18.2681H9.94693C9.97796 18.2681 10.0077 18.2557 10.0297 18.2338C10.0516 18.2119 10.064 18.1821 10.064 18.1511V11.5978C10.064 11.1322 10.2489 10.6858 10.5781 10.3566C10.9073 10.0274 11.3537 9.84244 11.8193 9.84244C12.2848 9.84244 12.7313 10.0274 13.0605 10.3566C13.3897 10.6858 13.5746 11.1322 13.5746 11.5978V18.1511C13.5746 18.2156 13.6271 18.2681 13.6917 18.2681H17.4364C17.4674 18.2681 17.4972 18.2557 17.5191 18.2338C17.5411 18.2119 17.5534 18.1821 17.5534 18.1511V10.0812C17.5534 7.80906 15.5781 6.03218 13.3172 6.23721C12.6177 6.30137 11.9326 6.47447 11.2866 6.75023L10.064 7.2745V5.98069C10.064 5.94966 10.0516 5.91989 10.0297 5.89795C10.0077 5.876 9.97796 5.86367 9.94693 5.86367H6.2022Z" fill="white"/>
</svg>
