<svg width="30" height="30" viewBox="0 0 30 30" fill="none" xmlns="http://www.w3.org/2000/svg">
<path d="M12.2924 9.29376C12.1997 9.38628 12.1262 9.49616 12.076 9.61714C12.0258 9.73811 12 9.86779 12 9.99876C12 10.1297 12.0258 10.2594 12.076 10.3804C12.1262 10.5014 12.1997 10.6112 12.2924 10.7038L16.1724 14.5838L12.2924 18.4638C12.1055 18.6507 12.0004 18.9043 12.0004 19.1688C12.0004 19.4332 12.1055 19.6868 12.2924 19.8738C12.4794 20.0607 12.733 20.1658 12.9974 20.1658C13.2619 20.1658 13.5155 20.0607 13.7024 19.8738L18.2924 15.2838C18.3851 15.1912 18.4587 15.0814 18.5089 14.9604C18.5591 14.8394 18.5849 14.7097 18.5849 14.5788C18.5849 14.4478 18.5591 14.3181 18.5089 14.1971C18.4587 14.0762 18.3851 13.9663 18.2924 13.8738L13.7024 9.28376C13.3224 8.90376 12.6824 8.90376 12.2924 9.29376Z" fill="#001269"/>
<circle cx="15" cy="15" r="15" fill="#001269" fill-opacity="0.15"/>
</svg>
