<svg width="42" height="39" viewBox="0 0 42 39" fill="none" xmlns="http://www.w3.org/2000/svg">
<path d="M37.5 4.78471H20.8333L16.6667 0H4.16667C1.875 0 0 2.15312 0 4.78471V33.493C0 36.1246 1.875 38.2777 4.16667 38.2777H37.5C39.7917 38.2777 41.6667 36.1246 41.6667 33.493V9.56943C41.6667 6.93783 39.7917 4.78471 37.5 4.78471ZM30.8333 33.493H27.7083V29.9045H30.8333V33.493ZM30.8333 28.2298H27.7083C27.7083 22.4882 32.2917 22.7274 32.2917 19.1389C32.2917 17.225 30.8333 15.5503 29.1667 15.5503C27.5 15.5503 26.0417 17.225 26.0417 19.1389H22.9167C22.9167 15.0718 25.625 11.9618 29.1667 11.9618C32.7083 11.9618 35.4167 15.0718 35.4167 19.1389C35.4167 23.6843 30.8333 24.1628 30.8333 28.2298Z" fill="#F7E51F"/>
</svg>
