<svg width="44" height="44" viewBox="0 0 44 44" fill="none" xmlns="http://www.w3.org/2000/svg">
<path d="M41.8 26.3996H39.6V2.19997C39.6 1.6165 39.3682 1.05693 38.9556 0.644356C38.5431 0.231782 37.9835 0 37.4 0H6.6C6.01652 0 5.45695 0.231782 5.04437 0.644356C4.63179 1.05693 4.4 1.6165 4.4 2.19997V26.3996H2.2C1.61652 26.3996 1.05695 26.6314 0.644365 27.044C0.231785 27.4566 0 28.0161 0 28.5996C0 29.1831 0.231785 29.7426 0.644365 30.1552C1.05695 30.5678 1.61652 30.7996 2.2 30.7996H19.8V33.3295L9.79 39.9294C9.37934 40.1836 9.06373 40.5659 8.89189 41.0173C8.72005 41.4686 8.70151 41.964 8.83915 42.427C8.97678 42.8899 9.26293 43.2947 9.65345 43.5789C10.044 43.863 10.5172 44.0108 11 43.9994C11.4325 44.0043 11.8557 43.8735 12.21 43.6254L19.8 38.6095V41.7994C19.8 42.3829 20.0318 42.9425 20.4444 43.355C20.8569 43.7676 21.4165 43.9994 22 43.9994C22.5835 43.9994 23.1431 43.7676 23.5556 43.355C23.9682 42.9425 24.2 42.3829 24.2 41.7994V38.6095L31.79 43.6254C32.1443 43.8735 32.5675 44.0043 33 43.9994C33.47 43.9958 33.9265 43.8417 34.3026 43.5597C34.6787 43.2778 34.9546 42.8828 35.0899 42.4327C35.2252 41.9825 35.2128 41.5009 35.0544 41.0583C34.8961 40.6158 34.6001 40.2356 34.21 39.9734L24.2 33.3735V30.7996H41.8C42.3835 30.7996 42.9431 30.5678 43.3556 30.1552C43.7682 29.7426 44 29.1831 44 28.5996C44 28.0161 43.7682 27.4566 43.3556 27.044C42.9431 26.6314 42.3835 26.3996 41.8 26.3996ZM35.2 26.3996H8.8V4.39994H35.2V26.3996ZM15.4 21.9997C15.7624 21.9978 16.1186 21.9065 16.4372 21.7338C16.7557 21.5611 17.0267 21.3123 17.226 21.0097L20.152 16.6098L22.638 19.1177C22.8688 19.35 23.1486 19.5278 23.4569 19.6382C23.7652 19.7485 24.0942 19.7887 24.42 19.7557C24.7444 19.7201 25.0567 19.6128 25.3345 19.4416C25.6123 19.2704 25.8485 19.0395 26.026 18.7657L30.426 12.1658C30.6851 11.6828 30.7546 11.1204 30.6207 10.5888C30.4869 10.0573 30.1595 9.59482 29.7025 9.29204C29.2456 8.98925 28.6921 8.86795 28.1504 8.95189C27.6087 9.03584 27.1179 9.31898 26.774 9.74586L23.848 14.1458L21.362 11.6378C21.1312 11.4056 20.8514 11.2278 20.5431 11.1174C20.2348 11.007 19.9058 10.9669 19.58 10.9998C19.2556 11.0354 18.9433 11.1427 18.6655 11.314C18.3877 11.4852 18.1515 11.716 17.974 11.9898L13.574 18.5897C13.2556 19.0748 13.1417 19.6659 13.257 20.2345C13.3724 20.8031 13.7077 21.3031 14.19 21.6257C14.5443 21.8738 14.9675 22.0046 15.4 21.9997Z" fill="#F36A40"/>
</svg>
