<svg width="42" height="42" viewBox="0 0 42 42" fill="none" xmlns="http://www.w3.org/2000/svg">
<path d="M24.7908 13.0113C24.9206 13.1408 25.0235 13.2946 25.0938 13.464C25.164 13.6334 25.2002 13.8149 25.2002 13.9983C25.2002 14.1816 25.164 14.3632 25.0938 14.5325C25.0235 14.7019 24.9206 14.8558 24.7908 14.9853L19.3588 20.4173L24.7908 25.8493C25.0525 26.111 25.1996 26.4661 25.1996 26.8363C25.1996 27.2065 25.0525 27.5615 24.7908 27.8233C24.529 28.085 24.174 28.2321 23.8038 28.2321C23.4336 28.2321 23.0785 28.085 22.8168 27.8233L16.3908 21.3973C16.261 21.2678 16.158 21.1139 16.0878 20.9445C16.0175 20.7752 15.9814 20.5936 15.9814 20.4103C15.9814 20.2269 16.0175 20.0454 16.0878 19.876C16.158 19.7066 16.261 19.5528 16.3908 19.4233L22.8168 12.9973C23.3488 12.4653 24.2448 12.4653 24.7908 13.0113Z" fill="#001269"/>
<circle cx="21" cy="21" r="21" transform="matrix(-1 0 0 1 42 0)" fill="#001269" fill-opacity="0.15"/>
</svg>
