<svg width="41" height="35" viewBox="0 0 41 35" fill="none" xmlns="http://www.w3.org/2000/svg">
<path d="M37.5 0H3.125C2.2962 0 1.50134 0.32924 0.915291 0.915291C0.32924 1.50134 0 2.2962 0 3.125V31.25C0 32.0788 0.32924 32.8737 0.915291 33.4597C1.50134 34.0458 2.2962 34.375 3.125 34.375H5.74023C6.03595 34.3751 6.32562 34.2913 6.57559 34.1333C6.82556 33.9753 7.02556 33.7496 7.15234 33.4824C7.91215 31.8783 9.11174 30.5228 10.6116 29.5736C12.1115 28.6244 13.85 28.1205 15.625 28.1205C17.4 28.1205 19.1385 28.6244 20.6384 29.5736C22.1383 30.5228 23.3379 31.8783 24.0977 33.4824C24.2244 33.7496 24.4244 33.9753 24.6744 34.1333C24.9244 34.2913 25.214 34.3751 25.5098 34.375H37.5C38.3288 34.375 39.1237 34.0458 39.7097 33.4597C40.2958 32.8737 40.625 32.0788 40.625 31.25V3.125C40.625 2.2962 40.2958 1.50134 39.7097 0.915291C39.1237 0.32924 38.3288 0 37.5 0ZM15.625 25C14.3889 25 13.1805 24.6334 12.1527 23.9467C11.1249 23.2599 10.3238 22.2838 9.85075 21.1418C9.3777 19.9997 9.25393 18.7431 9.49509 17.5307C9.73625 16.3183 10.3315 15.2047 11.2056 14.3306C12.0797 13.4565 13.1933 12.8612 14.4057 12.6201C15.6181 12.3789 16.8747 12.5027 18.0168 12.9758C19.1588 13.4488 20.1349 14.2499 20.8217 15.2777C21.5084 16.3055 21.875 17.5139 21.875 18.75C21.875 20.4076 21.2165 21.9973 20.0444 23.1694C18.8723 24.3415 17.2826 25 15.625 25ZM37.5 31.25H26.4512C25.77 30.0755 24.9018 29.02 23.8809 28.125H32.8125C33.2269 28.125 33.6243 27.9604 33.9174 27.6674C34.2104 27.3743 34.375 26.9769 34.375 26.5625V7.8125C34.375 7.3981 34.2104 7.00067 33.9174 6.70765C33.6243 6.41462 33.2269 6.25 32.8125 6.25H7.8125C7.3981 6.25 7.00067 6.41462 6.70765 6.70765C6.41462 7.00067 6.25 7.3981 6.25 7.8125V26.5625C6.24983 26.909 6.36485 27.2458 6.57699 27.5198C6.78913 27.7938 7.08634 27.9895 7.42188 28.0762C6.37737 28.9811 5.49089 30.0538 4.79883 31.25H3.125V3.125H37.5V31.25Z" fill="#EB5CDD"/>
</svg>
