<svg width="41" height="46" viewBox="0 0 41 46" fill="none" xmlns="http://www.w3.org/2000/svg">
<path d="M30.661 22.9245V34.5497M22.4716 34.5497V29.8994M2 29.8994L7.79371 23.3196M12.2363 11.2993C10.6074 11.2993 9.0453 12.0342 7.89353 13.3422C6.74176 14.6503 6.09471 16.4244 6.09471 18.2742C6.09471 20.1241 6.74176 21.8982 7.89353 23.2062C9.0453 24.5143 10.6074 25.2491 12.2363 25.2491C13.8651 25.2491 15.4273 24.5143 16.579 23.2062C17.7308 21.8982 18.3778 20.1241 18.3778 18.2742C18.3778 16.4244 17.7308 14.6503 16.579 13.3422C15.4273 12.0342 13.8651 11.2993 12.2363 11.2993Z" stroke="#344054" stroke-width="3" stroke-linecap="round" stroke-linejoin="round"/>
<path d="M12.2363 2H36.8026C37.3455 2 37.8661 2.24491 38.2499 2.68086C38.6338 3.1168 38.8495 3.70807 38.8495 4.32459V41.5248C38.8495 42.1413 38.6338 42.7326 38.2499 43.1685C37.8661 43.6045 37.3455 43.8494 36.8026 43.8494H12.2363C11.9674 43.8495 11.7012 43.7895 11.4527 43.6728C11.2043 43.556 10.9785 43.3848 10.7883 43.1689C10.5982 42.9531 10.4473 42.6967 10.3444 42.4146C10.2415 42.1325 10.1885 41.8302 10.1885 41.5248V34.5499" stroke="#306CFE" stroke-width="3" stroke-linecap="round" stroke-linejoin="round"/>
</svg>
