<svg width="37" height="35" viewBox="0 0 37 35" fill="none" xmlns="http://www.w3.org/2000/svg">
<path fill-rule="evenodd" clip-rule="evenodd" d="M8.75339 0.0605793C8.32868 0.218378 8.31206 0.290139 8.31206 1.96433V3.52109H9.52573H10.7394V4.67972V5.83836H12.4639C14.6872 5.83836 14.5898 5.89532 14.6257 4.57425L14.6502 3.67059L17.9725 3.66932L21.2947 3.66797L22.0933 4.51026C23.2789 5.76069 23.1698 5.37902 23.1701 8.27523L23.1704 10.7495L22.959 11.041C22.8427 11.2013 22.4007 11.6773 21.9766 12.0987L21.2057 12.8649H17.9218H14.6379L14.6371 12.4351C14.6358 11.7893 14.5637 11.4657 14.3744 11.2582L14.2035 11.0709H12.5083H10.813V17.4266V23.7823L11.0121 23.8592C11.446 24.0269 14.244 23.9134 14.4337 23.7204L14.6011 23.5502L14.6222 20.039L14.6434 16.5277H16.8811H19.1189L19.1981 16.808C19.2605 17.0293 22.6473 30.8583 22.7567 31.3389C22.7799 31.4408 22.7032 31.4669 22.3056 31.4926C21.5273 31.543 21.4786 31.6394 21.4786 33.1302C21.4786 35.0708 21.2407 34.9388 24.8077 34.9778C29.092 35.0247 28.772 35.1829 28.7438 33.0308L28.7238 31.5152L27.8097 31.5109C27.0944 31.5075 26.8822 31.4832 26.834 31.3988C26.742 31.2379 23.1704 16.6277 23.1704 16.4124C23.1704 16.2738 23.5732 15.7929 24.7702 14.5025C25.6501 13.554 26.4528 12.6377 26.5539 12.4664L26.7378 12.1548L26.7597 8.37988C26.7865 3.76298 26.8771 4.22875 25.7121 2.99798C25.2244 2.4828 24.4497 1.65202 23.9905 1.15179C23.4174 0.527472 23.0653 0.205521 22.8673 0.125089C22.5799 0.00817909 9.06071 -0.053565 8.75339 0.0605793ZM3.78836 6.76452C3.57564 6.85901 2.27487 8.18239 0.939685 9.66276C-0.0958361 10.8109 0.00368526 9.97394 0.00184636 17.5438L0.00022811 24.054L0.165729 24.3651C0.444433 24.8889 3.28818 27.9214 3.71083 28.1455L4.07472 28.3383H12.5927C20.6565 28.3383 21.1107 28.3314 21.1098 28.2075C21.1054 27.6582 20.3724 25.1506 20.1596 24.9574L19.9315 24.7503H12.7625C6.53112 24.7503 5.55716 24.7355 5.31612 24.6371C4.99211 24.5048 3.9454 23.3894 3.7941 23.015C3.67148 22.7116 3.64037 12.9725 3.76026 12.4199C3.92378 11.6662 4.45309 10.9185 5.14518 10.4636L5.47221 10.2487H13.88H22.2877V8.50135V6.75406L22.0578 6.70734C21.559 6.60597 4.02168 6.66084 3.78836 6.76452ZM27.651 6.67931C27.5873 6.87037 27.6316 9.66784 27.7013 9.85023C27.847 10.2312 27.9412 10.2487 29.8481 10.2487H31.6072L31.8941 10.461C33.2822 11.4885 33.7624 12.368 33.7624 13.8824C33.7624 15.5795 33.6518 15.4812 35.5612 15.4812H36.9989V13.159C36.9989 11.5634 36.9726 10.7857 36.9149 10.6735C36.6037 10.0687 33.4442 6.84181 33.0637 6.74008C32.8165 6.674 27.6721 6.61629 27.651 6.67931ZM33.9607 19.6008C33.7388 19.7319 33.6898 19.9921 33.7635 20.6479C33.9454 22.269 33.1207 23.8326 31.7068 24.5477L31.3062 24.7503H28.7462H26.1862V25.0769C26.1862 25.6004 26.8015 27.9503 26.9883 28.1403C27.1778 28.3329 32.125 28.4306 32.9439 28.2578C33.4294 28.1553 33.634 27.9694 35.5537 25.8848C37.1609 24.1396 36.9932 24.5979 36.9963 21.9405L36.9989 19.6912L36.8116 19.6045C36.5707 19.4929 34.1484 19.4898 33.9607 19.6008ZM10.7394 30.3192V31.4778H9.52426H8.30911L8.32897 33.0583L8.34883 34.6388L8.55641 34.7963C8.76126 34.9517 8.81466 34.9538 12.5531 34.9538H16.3422L16.5198 34.744C16.6934 34.5391 16.6974 34.504 16.6951 33.2116C16.6921 31.4827 16.6882 31.4778 15.3319 31.4778H14.5643V30.3192V29.1606H12.6519H10.7394V30.3192Z" fill="white"/>
</svg>
