<svg width="44" height="44" viewBox="0 0 44 44" fill="none" xmlns="http://www.w3.org/2000/svg">
<path d="M24.2 39.6V44H19.8V39.6H2.2C1.61652 39.6 1.05695 39.3682 0.644365 38.9556C0.231785 38.5431 0 37.9835 0 37.4V6.6H44V37.4C44 37.9835 43.7682 38.5431 43.3556 38.9556C42.9431 39.3682 42.3835 39.6 41.8 39.6H24.2ZM4.4 35.2H39.6V11H4.4V35.2ZM24.2 15.4H35.2V19.8H24.2V15.4ZM24.2 24.2H35.2V28.6H24.2V24.2ZM15.4 15.4V22H22C22 23.3054 21.6129 24.5814 20.8877 25.6668C20.1625 26.7521 19.1317 27.5981 17.9257 28.0976C16.7197 28.5971 15.3927 28.7278 14.1124 28.4732C12.8321 28.2185 11.6561 27.5899 10.7331 26.6669C9.81007 25.7439 9.18148 24.5679 8.92682 23.2876C8.67216 22.0073 8.80286 20.6803 9.3024 19.4743C9.80193 18.2683 10.6479 17.2375 11.7332 16.5123C12.8186 15.7871 14.0946 15.4 15.4 15.4ZM0 0H44V4.4H0V0Z" fill="#0BD0D0"/>
</svg>
