<svg width="50" height="50" viewBox="0 0 50 50" fill="none" xmlns="http://www.w3.org/2000/svg">
<path d="M36.4583 9.375C32.3958 9.375 28.0208 10.2083 24.9999 12.5C21.9791 10.2083 17.6041 9.375 13.5416 9.375C10.5208 9.375 7.31242 9.83333 4.62492 11.0208C3.10409 11.7083 2.08325 13.1875 2.08325 14.875V38.375C2.08325 41.0833 4.62492 43.0833 7.24992 42.4167C9.29158 41.8958 11.4583 41.6667 13.5416 41.6667C16.7916 41.6667 20.2499 42.2083 23.0416 43.5833C24.2916 44.2083 25.7083 44.2083 26.9374 43.5833C29.7291 42.1875 33.1874 41.6667 36.4374 41.6667C38.5208 41.6667 40.6874 41.8958 42.7291 42.4167C45.3541 43.1042 47.8957 41.1042 47.8957 38.375V14.875C47.8957 13.1875 46.8749 11.7083 45.3541 11.0208C42.6874 9.83333 39.4791 9.375 36.4583 9.375ZM43.7499 35.8958C43.7499 37.2083 42.5416 38.1667 41.2499 37.9375C39.6874 37.6458 38.0624 37.5208 36.4583 37.5208C32.9166 37.5208 27.8124 38.875 24.9999 40.6458V16.6667C27.8124 14.8958 32.9166 13.5417 36.4583 13.5417C38.3749 13.5417 40.2708 13.7292 42.0833 14.125C43.0416 14.3333 43.7499 15.1875 43.7499 16.1667V35.8958Z" fill="#FF6F6F"/>
<path d="M29.1251 22.9374C28.4584 22.9374 27.8542 22.5207 27.6459 21.854C27.3751 21.0415 27.8334 20.1457 28.6459 19.8957C31.8542 18.854 36.0001 18.5207 39.8126 18.9582C40.6667 19.0624 41.2917 19.8332 41.1876 20.6874C41.0834 21.5415 40.3126 22.1665 39.4584 22.0624C36.0834 21.6665 32.3959 21.979 29.6042 22.8749C29.4376 22.8957 29.2709 22.9374 29.1251 22.9374ZM29.1251 28.479C28.4584 28.479 27.8542 28.0624 27.6459 27.3957C27.3751 26.5832 27.8334 25.6874 28.6459 25.4374C31.8334 24.3957 36.0001 24.0624 39.8126 24.4999C40.6667 24.604 41.2917 25.3749 41.1876 26.229C41.0834 27.0832 40.3126 27.7082 39.4584 27.604C36.0834 27.2082 32.3959 27.5207 29.6042 28.4165C29.4476 28.4565 29.2867 28.4774 29.1251 28.479ZM29.1251 34.0207C28.4584 34.0207 27.8542 33.604 27.6459 32.9374C27.3751 32.1249 27.8334 31.229 28.6459 30.979C31.8334 29.9374 36.0001 29.604 39.8126 30.0415C40.6667 30.1457 41.2917 30.9165 41.1876 31.7707C41.0834 32.6249 40.3126 33.229 39.4584 33.1457C36.0834 32.7499 32.3959 33.0624 29.6042 33.9582C29.4476 33.9981 29.2867 34.0191 29.1251 34.0207Z" fill="#FF6F6F"/>
</svg>
