<svg width="27" height="31" viewBox="0 0 27 31" fill="none" xmlns="http://www.w3.org/2000/svg">
<path d="M21.4209 4.85667C20.2441 3.51252 19.5955 1.78663 19.5957 0H14.2749V21.3556C14.2347 22.5115 13.7471 23.6066 12.9151 24.4099C12.083 25.2132 10.9715 25.6618 9.81505 25.6611C7.3699 25.6611 5.33801 23.6633 5.33801 21.1833C5.33801 18.2211 8.19643 15.9994 11.1409 16.9122V11.47C5.20026 10.6778 0 15.2933 0 21.1833C0 26.9183 4.75255 31 9.79783 31C15.2047 31 19.5957 26.6083 19.5957 21.1833V10.3506C21.7532 11.9003 24.3437 12.7318 27 12.7272V7.40556C27 7.40556 23.7628 7.56056 21.4209 4.85667Z" fill="#001269"/>
</svg>
