<svg width="38" height="49" viewBox="0 0 38 49" fill="none" xmlns="http://www.w3.org/2000/svg">
<path d="M5 2.87083H25C25.663 2.87083 26.2989 3.17329 26.7678 3.71167C27.2366 4.25006 27.5 4.98027 27.5 5.74166V20.159C28.3458 20.247 29.1827 20.4247 30 20.6901V5.74166C30 4.21887 29.4732 2.75846 28.5355 1.68169C27.5979 0.604923 26.3261 0 25 0H5C3.67392 0 2.40215 0.604923 1.46447 1.68169C0.526784 2.75846 0 4.21887 0 5.74166V40.1916C0 41.7144 0.526784 43.1748 1.46447 44.2516C2.40215 45.3283 3.67392 45.9333 5 45.9333H15.6425C15.0058 45.0477 14.455 44.0851 14 43.0624H5C4.33696 43.0624 3.70107 42.76 3.23223 42.2216C2.76339 41.6832 2.5 40.953 2.5 40.1916H13.0175C12.7862 39.2532 12.6313 38.2921 12.555 37.3208H2.5V5.74166C2.5 4.98027 2.76339 4.25006 3.23223 3.71167C3.70107 3.17329 4.33696 2.87083 5 2.87083ZM7.5 5.74166C6.83696 5.74166 6.20107 6.04412 5.73223 6.5825C5.26339 7.12089 5 7.85109 5 8.61248V11.4833C5 12.2447 5.26339 12.9749 5.73223 13.5133C6.20107 14.0517 6.83696 14.3541 7.5 14.3541H22.5C23.163 14.3541 23.7989 14.0517 24.2678 13.5133C24.7366 12.9749 25 12.2447 25 11.4833V8.61248C25 7.85109 24.7366 7.12089 24.2678 6.5825C23.7989 6.04412 23.163 5.74166 22.5 5.74166H7.5ZM22.5 8.61248V11.4833H7.5V8.61248H22.5ZM37.5 35.8854C37.5 39.3116 36.3147 42.5975 34.2049 45.0203C32.0952 47.443 29.2337 48.8041 26.25 48.8041C23.2663 48.8041 20.4048 47.443 18.295 45.0203C16.1853 42.5975 15 39.3116 15 35.8854C15 32.4591 16.1853 29.1732 18.295 26.7504C20.4048 24.3277 23.2663 22.9666 26.25 22.9666C29.2337 22.9666 32.0952 24.3277 34.2049 26.7504C36.3147 29.1732 37.5 32.4591 37.5 35.8854ZM25.05 30.2413C24.8879 30.1135 24.6995 30.0364 24.5035 30.0178C24.3075 29.9992 24.1107 30.0396 23.9325 30.1351C23.787 30.2086 23.6554 30.3139 23.545 30.4451C23.3121 30.7192 23.182 31.0871 23.1825 31.47V40.2978C23.181 40.4881 23.2122 40.6769 23.2744 40.8532C23.3366 41.0296 23.4286 41.1901 23.545 41.3256C23.6591 41.4559 23.7919 41.5627 23.9375 41.6414C24.1912 41.7748 24.4789 41.7953 24.745 41.6988C24.8602 41.6552 24.9696 41.5933 25.07 41.515L30.81 37.0165C30.9846 36.8843 31.1253 36.701 31.2175 36.4854C31.3125 36.2682 31.3613 36.0283 31.36 35.7853C31.3587 35.5423 31.3073 35.3031 31.21 35.0873C31.1122 34.8748 30.9685 34.6948 30.7925 34.5648L25.05 30.2413Z" fill="#1A16D8"/>
</svg>
